<?xml version="1.0" standalone="no"?>
<!DOCTYPE svg PUBLIC "-//W3C//DTD SVG 20010904//EN"
 "http://www.w3.org/TR/2001/REC-SVG-20010904/DTD/svg10.dtd">
<svg version="1.0" xmlns="http://www.w3.org/2000/svg"
 width="1555.000000pt" height="234.000000pt" viewBox="0 0 1555.000000 234.000000"
 preserveAspectRatio="xMidYMid meet">

<g transform="translate(0.000000,234.000000) scale(0.100000,-0.100000)"
fill="#000000" stroke="none">
<path d="M6275 2329 c-1595 -15 -3553 -60 -5580 -129 -319 -11 -606 -20 -637
-20 l-58 0 0 -55 0 -55 7775 0 7775 0 0 55 0 55 -52 0 c-29 0 -300 9 -603 20
-3107 112 -5954 155 -8620 129z"/>
<path d="M0 1985 c0 -13 871 -15 7775 -15 6904 0 7775 2 7775 15 0 13 -871 15
-7775 15 -6904 0 -7775 -2 -7775 -15z"/>
<path d="M300 1585 l0 -125 245 0 245 0 0 -395 0 -395 160 0 160 0 0 395 0
395 245 0 245 0 0 125 0 125 -650 0 -650 0 0 -125z"/>
<path d="M1730 1190 l0 -520 600 0 600 0 0 115 0 115 -445 0 -445 0 0 90 0 90
415 0 415 0 0 110 0 110 -415 0 -416 0 3 88 3 87 443 3 442 2 0 115 0 115
-600 0 -600 0 0 -520z"/>
<path d="M12490 1585 l0 -125 248 -2 247 -3 3 -392 2 -393 155 0 155 0 0 395
0 395 250 0 251 0 -3 123 -3 122 -652 3 -653 2 0 -125z"/>
<path d="M3293 1690 c-109 -16 -197 -99 -228 -215 -14 -50 -16 -103 -13 -320
3 -255 3 -261 29 -315 32 -69 79 -116 144 -146 l50 -24 471 0 c523 0 526 0
602 66 62 52 95 129 100 230 l5 84 -146 0 -145 0 -7 -37 c-10 -54 -48 -100
-93 -113 -21 -6 -154 -10 -314 -10 -409 0 -398 -8 -398 291 0 177 2 197 20
227 36 59 56 62 388 62 294 0 300 0 333 -23 19 -12 41 -37 49 -54 l15 -33 149
0 149 0 -6 61 c-10 113 -74 206 -176 253 -44 20 -61 21 -486 23 -242 0 -463
-2 -492 -7z"/>
<path d="M6463 1690 c-98 -15 -193 -91 -229 -186 -17 -44 -19 -78 -19 -329 0
-264 1 -283 21 -326 32 -68 82 -119 149 -151 l60 -28 510 0 510 0 60 28 c67
32 117 83 149 151 20 43 21 62 21 331 0 278 -1 286 -24 337 -27 61 -93 126
-159 156 -46 21 -58 22 -522 24 -261 0 -498 -2 -527 -7z m847 -238 c22 -12 44
-35 58 -62 20 -41 22 -58 22 -209 0 -197 -12 -236 -84 -270 -40 -20 -60 -21
-351 -21 -291 0 -311 1 -351 21 -72 34 -84 73 -84 270 0 151 2 168 23 209 40
79 45 80 412 80 291 0 324 -2 355 -18z"/>
<path d="M7820 1180 l0 -520 160 0 160 0 0 129 0 130 378 3 377 3 57 28 c62
30 105 74 140 140 20 37 23 60 26 199 5 199 -6 237 -87 319 -92 92 -70 89
-683 89 l-528 0 0 -520z m939 265 c38 -19 41 -30 41 -146 0 -93 -2 -102 -25
-124 l-24 -25 -306 0 -305 0 0 155 0 155 295 0 c240 0 301 -3 324 -15z"/>
<path d="M9503 1690 c-112 -17 -204 -91 -240 -193 -16 -45 -18 -88 -18 -322 0
-270 0 -270 26 -325 35 -74 67 -110 131 -145 l53 -30 514 -3 c598 -3 579 -6
671 87 87 88 92 110 88 442 -3 262 -4 276 -26 320 -31 64 -85 117 -151 148
l-56 26 -470 2 c-258 0 -493 -2 -522 -7z m517 -100 l0 -90 -30 0 -30 0 0 90 0
90 30 0 30 0 0 -90z m319 -138 c71 -35 76 -51 79 -260 3 -218 -3 -241 -78
-279 -43 -22 -53 -23 -345 -23 -173 0 -316 4 -337 10 -20 6 -50 26 -67 46
l-31 35 0 195 c0 220 4 235 69 273 34 20 50 21 356 21 285 0 324 -2 354 -18z
m-849 -302 l0 -30 -90 0 -90 0 0 30 0 30 90 0 90 0 0 -30z m1178 3 l-3 -28
-92 -3 -93 -3 0 31 0 30 96 0 95 0 -3 -27z m-648 -378 l0 -85 -30 0 -30 0 0
85 0 85 30 0 30 0 0 -85z"/>
<path d="M14174 1690 c-98 -15 -178 -74 -230 -170 -17 -32 -19 -63 -22 -318
-4 -340 -1 -355 87 -443 93 -93 74 -90 672 -87 512 3 514 3 556 26 59 31 111
86 139 146 23 50 24 57 24 338 l0 286 -33 63 c-35 68 -98 125 -165 149 -28 10
-148 14 -507 16 -258 1 -493 -1 -521 -6z m829 -234 c18 -7 43 -26 57 -40 25
-27 25 -30 28 -224 2 -182 1 -199 -17 -229 -43 -69 -38 -68 -411 -68 -335 0
-335 0 -368 23 -57 41 -62 61 -62 265 0 175 1 186 23 218 44 67 56 69 405 69
243 0 320 -3 345 -14z"/>
<path d="M4570 1180 l0 -510 165 0 165 0 2 398 3 398 300 -403 300 -403 90 0
c49 0 181 3 293 7 l202 6 0 509 0 508 -160 0 -160 0 -2 -402 -3 -403 -304 403
-304 402 -293 0 -294 0 0 -510z"/>
<path d="M10850 1180 l0 -510 165 0 165 0 2 398 3 399 300 -404 300 -403 90 0
c50 0 181 3 293 7 l202 6 0 509 0 508 -160 0 -160 0 -2 -402 -3 -402 -304 402
-304 402 -293 0 -294 0 0 -510z"/>
<path d="M0 375 c0 -13 871 -15 7775 -15 6904 0 7775 2 7775 15 0 13 -871 15
-7775 15 -6904 0 -7775 -2 -7775 -15z"/>
<path d="M0 215 l0 -55 58 0 c31 0 320 -9 642 -20 5358 -181 9139 -181 14195
0 303 11 574 20 603 20 l52 0 0 55 0 55 -7775 0 -7775 0 0 -55z"/>
</g>
</svg>
